<svg xmlns="http://www.w3.org/2000/svg" viewBox="0 0 512 512">
  <rect width="512" height="512" fill="#0f1115"/>
  <g transform="translate(74,128) scale(1.7)">
    <path fill="#f2f4f8" d="M44,74 C70,60 104,62 126,72 C132,58 146,46 160,50 C176,42 190,44 200,56 C208,64 206,74 198,80 C190,82 184,78 178,74 C168,78 158,82 150,90 C151,108 150,128 150,146 L142,146 C143,124 142,104 138,94 C126,96 114,96 104,93 C104,112 102,132 101,150 L93,150 C95,128 94,106 92,95 C80,98 68,98 58,95 C58,114 56,134 55,150 L47,150 C49,128 48,110 46,99 C40,112 33,130 28,150 L20,150 C25,122 31,104 40,93 C32,88 28,82 34,74 Z"/>
    <path fill="#f2f4f8" d="M44,74 C22,82 10,104 6,134 C4,144 8,150 16,146 C22,126 32,102 48,88 Z"/>
    <circle cx="120" cy="42" r="11" fill="#f2f4f8"/>
    <path fill="#f2f4f8" d="M112,52 C118,47 132,47 138,54 C142,66 138,80 128,84 C118,82 110,86 110,86 C104,80 106,62 112,52 Z"/>
    <path fill="none" stroke="#f2f4f8" stroke-width="9" stroke-linecap="round" d="M132,56 C120,44 108,38 96,32"/>
    <g transform="translate(88,26) rotate(-30)">
      <path fill="#f5c518" d="M-22,4 Q0,-20 22,4 Q0,-6 -22,4 Z"/>
      <path fill="#6b4f1d" d="M20,2 l6,-4 l1,3 z"/>
    </g>
  </g>
</svg>
